<?xml version="1.0" encoding="iso-8859-1"?>
<!-- Generator: Adobe Illustrator 19.0.0, SVG Export Plug-In . SVG Version: 6.00 Build 0)  -->
<svg version="1.1" id="Layer_1" xmlns="http://www.w3.org/2000/svg" xmlns:xlink="http://www.w3.org/1999/xlink" x="0px" y="0px"
	 viewBox="0 0 512 512" style="enable-background:new 0 0 512 512;" xml:space="preserve">
<circle style="fill:#FFAD9E;" cx="256" cy="256" r="256"/>
<path style="fill:#FF6262;" d="M511.724,267.688L392.29,148.156L113.778,312.889l-26.433,58.613l138.75,138.75
	C235.908,511.393,245.882,512,256,512C393.466,512,505.613,403.646,511.724,267.688z"/>
<g>
	<polygon style="fill:#940030;" points="108.828,371.283 87.345,371.502 87.345,319.393 126.567,314.211 	"/>
	<polygon style="fill:#940030;" points="403.172,371.502 424.655,371.283 424.655,319.174 385.433,314.794 	"/>
</g>
<path style="fill:#263A7A;" d="M134.034,312.889h243.933c11.186,0,20.256-9.069,20.256-20.256V162.478
	c0-11.186-9.069-20.256-20.256-20.256H134.034c-11.186,0-20.256,9.069-20.256,20.256v130.155
	C113.778,303.819,122.847,312.889,134.034,312.889z"/>
<path style="fill:#121149;" d="M377.966,142.222H253.702v170.667h124.264c11.186,0,20.256-9.069,20.256-20.256V162.478
	C398.222,151.292,389.153,142.222,377.966,142.222z"/>
<path style="fill:#FFFFFF;" d="M227.192,265.481c-29.281,5.622-58.563,5.622-87.843,0c-9.369-17.568-9.369-35.137,0-52.707
	c29.281-5.622,58.563-5.622,87.843,0C236.561,230.345,236.561,247.913,227.192,265.481z"/>
<path style="fill:#CCCCCC;" d="M369.778,265.481c-29.281,5.622-58.563,5.622-87.843,0c-9.369-17.568-9.369-35.137,0-52.707
	c29.281-5.622,58.563-5.622,87.843,0C379.147,230.345,379.147,247.913,369.778,265.481z"/>
<path style="fill:#366695;" d="M85.333,341.333h341.333v-68.525c0-9.283-7.525-16.808-16.808-16.808H102.141
	c-9.283,0-16.808,7.525-16.808,16.808V341.333z"/>
<path style="fill:#263A7A;" d="M426.667,272.808c0-9.283-7.525-16.808-16.808-16.808H253.702v85.333h172.965V272.808z"/>
<g>
</g>
<g>
</g>
<g>
</g>
<g>
</g>
<g>
</g>
<g>
</g>
<g>
</g>
<g>
</g>
<g>
</g>
<g>
</g>
<g>
</g>
<g>
</g>
<g>
</g>
<g>
</g>
<g>
</g>
</svg>
