<?xml version="1.0" encoding="iso-8859-1"?>
<!-- Generator: Adobe Illustrator 19.0.0, SVG Export Plug-In . SVG Version: 6.00 Build 0)  -->
<svg version="1.1" id="Layer_1" xmlns="http://www.w3.org/2000/svg" xmlns:xlink="http://www.w3.org/1999/xlink" x="0px" y="0px"
	 viewBox="0 0 512 512" style="enable-background:new 0 0 512 512;" xml:space="preserve">
<path style="fill:#FBD867;" d="M510.151,225.212C494.941,98.346,386.963,0,256,0C114.615,0,0,114.615,0,256
	c0,127.374,93.03,233.003,214.847,252.692L510.151,225.212z"/>
<path style="fill:#F9BE02;" d="M510.151,225.212L328.348,43.409L139.13,254.887L256,371.757v38.957l-94.609,44.522l53.456,53.457
	C228.247,510.857,241.989,512,256,512c141.384,0,256-114.616,256-256C512,245.579,511.361,235.307,510.151,225.212z"/>
<polygon style="fill:#4C6460;" points="272.696,388.452 244.87,377.322 244.87,421.843 272.696,410.713 "/>
<polygon style="fill:#616F6D;" points="239.304,388.452 239.304,410.713 256,421.843 256,377.322 "/>
<polygon style="fill:#263230;" points="272.696,166.957 247.652,166.957 256,388.452 272.696,388.452 "/>
<g>
	<rect x="239.304" y="166.957" style="fill:#394B48;" width="16.696" height="221.496"/>
	<polygon style="fill:#394B48;" points="272.696,410.713 256,410.713 244.87,444.104 328.348,432.974 	"/>
</g>
<polygon style="fill:#4C6460;" points="239.304,410.713 183.652,432.974 256,444.104 256,410.713 "/>
<polygon style="fill:#263230;" points="350.609,432.974 256,432.974 245.487,444.104 256,455.235 350.609,455.235 "/>
<g>
	<rect x="161.391" y="432.974" style="fill:#394B48;" width="94.609" height="22.261"/>
	<polygon style="fill:#394B48;" points="314.435,288.278 303.304,299.409 303.304,321.67 325.565,321.67 325.565,299.409 	"/>
</g>
<rect x="303.304" y="232.626" style="fill:#616F6D;" width="22.261" height="66.783"/>
<polygon style="fill:#FEF2CC;" points="328.348,43.409 256,43.409 233.739,149.148 256,254.887 372.87,254.887 "/>
<polygon style="fill:#FFFFFF;" points="183.652,43.409 139.13,254.887 256,254.887 256,43.409 "/>
<g>
</g>
<g>
</g>
<g>
</g>
<g>
</g>
<g>
</g>
<g>
</g>
<g>
</g>
<g>
</g>
<g>
</g>
<g>
</g>
<g>
</g>
<g>
</g>
<g>
</g>
<g>
</g>
<g>
</g>
</svg>
