<?xml version="1.0" encoding="iso-8859-1"?>
<!-- Generator: Adobe Illustrator 19.0.0, SVG Export Plug-In . SVG Version: 6.00 Build 0)  -->
<svg version="1.1" id="Layer_1" xmlns="http://www.w3.org/2000/svg" xmlns:xlink="http://www.w3.org/1999/xlink" x="0px" y="0px"
	 viewBox="0 0 512 512" style="enable-background:new 0 0 512 512;" xml:space="preserve">
<path style="fill:#707487;" d="M294.44,130.586l-21.181,21.181c-8.376,8.376-15.369,17.741-21.129,27.735V70.621h-17.655v174.776
	v248.948h17.655V245.397c0-30.655,11.939-59.474,33.612-81.146l21.181-21.181L294.44,130.586z"/>
<path style="fill:#AFB9D2;" d="M243.303,88.276L243.303,88.276c-9.751,0-17.655-7.904-17.655-17.655V44.138h35.31v26.483
	C260.958,80.372,253.053,88.276,243.303,88.276z"/>
<path style="fill:#FFB464;" d="M158.73,0c15.292,31.328,47.364,52.966,84.573,52.966S312.583,31.328,327.876,0H158.73z"/>
<g>
	<path style="fill:#AFB9D2;" d="M278.876,512h-70.884c-4.875,0-8.828-3.953-8.828-8.828v-8.828c0-4.875,3.953-8.828,8.828-8.828
		h70.884c4.875,0,8.828,3.953,8.828,8.828v8.828C287.704,508.047,283.752,512,278.876,512z"/>
	<path style="fill:#AFB9D2;" d="M292.612,144.898L292.612,144.898c-6.894-6.894-6.894-18.073,0-24.968l13.241-13.241l24.968,24.968
		l-13.241,13.241C310.685,151.793,299.506,151.793,292.612,144.898z"/>
</g>
<path style="fill:#FFB464;" d="M309.889,127.622L309.889,127.622c-9.751-9.751-9.751-25.559,0-35.31l8.071-8.071l35.31,35.31
	l-8.071,8.071C335.448,137.372,319.639,137.372,309.889,127.622z"/>
<circle style="fill:#464655;" cx="243.299" cy="247.172" r="17.655"/>
<g>
</g>
<g>
</g>
<g>
</g>
<g>
</g>
<g>
</g>
<g>
</g>
<g>
</g>
<g>
</g>
<g>
</g>
<g>
</g>
<g>
</g>
<g>
</g>
<g>
</g>
<g>
</g>
<g>
</g>
</svg>
