<?xml version="1.0" encoding="iso-8859-1"?>
<!-- Generator: Adobe Illustrator 19.0.0, SVG Export Plug-In . SVG Version: 6.00 Build 0)  -->
<svg version="1.1" id="Layer_1" xmlns="http://www.w3.org/2000/svg" xmlns:xlink="http://www.w3.org/1999/xlink" x="0px" y="0px"
	 viewBox="0 0 512 512" style="enable-background:new 0 0 512 512;" xml:space="preserve">
<circle style="fill:#334D5C;" cx="256" cy="256" r="256"/>
<path style="opacity:0.1;enable-background:new    ;" d="M262.837,0.171C260.56,0.112,258.293,0,256,0
	c-2.245,0-4.459,0.112-6.693,0.171v137.637c-75.147,3.36-135.573,63.2-139.947,138.08c-0.16,2.347,0.747,4.533,2.24,6.08
	l218.965,218.965C435.573,469.003,512,371.44,512,256c0-2.293-0.112-4.56-0.171-6.837L262.837,0.171z"/>
<rect x="249.333" style="fill:#FFFFFF;" width="13.333" height="192.267"/>
<path style="fill:#EBF0F3;" d="M256,137.648c-78.219,0-142.16,61.131-146.651,138.224c-0.277,4.715,3.536,8.677,8.261,8.677h276.779
	c4.725,0,8.539-3.963,8.261-8.677C398.16,198.779,334.219,137.648,256,137.648z"/>
<path style="fill:#E1E6E9;" d="M243.584,150c-1.44,0-2.869,0.059-4.299,0.101c67.856,6.587,120.731,59.083,120.731,122.875h18.064
	C378.075,205.061,317.861,150,243.584,150z"/>
<g>
	<path style="fill:#FCD462;" d="M256,350.747c36.56,0,66.192-29.637,66.192-66.192H189.808
		C189.808,321.109,219.44,350.747,256,350.747z"/>
	<rect x="253.12" y="360.8" style="fill:#FCD462;" width="5.787" height="13.547"/>
	
		<rect x="294.66" y="349.654" transform="matrix(0.866 -0.5001 0.5001 0.866 -138.3728 196.5939)" style="fill:#FCD462;" width="5.786" height="13.546"/>
	
		<rect x="177.291" y="323.185" transform="matrix(0.8661 -0.4999 0.4999 0.8661 -138.3556 135.6785)" style="fill:#FCD462;" width="13.547" height="5.787"/>
	
		<rect x="207.693" y="353.595" transform="matrix(0.4999 -0.8661 0.8661 0.4999 -201.4937 364.0286)" style="fill:#FCD462;" width="13.547" height="5.787"/>
	
		<rect x="325.017" y="319.318" transform="matrix(0.4999 -0.8661 0.8661 0.4999 -118.4329 447.08)" style="fill:#FCD462;" width="5.787" height="13.547"/>
</g>
<g>
</g>
<g>
</g>
<g>
</g>
<g>
</g>
<g>
</g>
<g>
</g>
<g>
</g>
<g>
</g>
<g>
</g>
<g>
</g>
<g>
</g>
<g>
</g>
<g>
</g>
<g>
</g>
<g>
</g>
</svg>
