<?xml version="1.0" encoding="iso-8859-1"?>
<!-- Generator: Adobe Illustrator 19.0.0, SVG Export Plug-In . SVG Version: 6.00 Build 0)  -->
<svg version="1.1" id="Layer_1" xmlns="http://www.w3.org/2000/svg" xmlns:xlink="http://www.w3.org/1999/xlink" x="0px" y="0px"
	 viewBox="0 0 512 512" style="enable-background:new 0 0 512 512;" xml:space="preserve">
<circle style="fill:#FF2746;" cx="256" cy="256" r="256"/>
<path style="fill:#940030;" d="M344.781,110.33L262.896,0l-6.041,132.727L174.114,13.378l-13.791,128.845l-53.441,170.667
	l195.003,195.003C421.373,486.267,512,381.721,512,256c0-33.833-6.578-66.127-18.503-95.692L351.692,18.503
	C334.672,11.638,352.827,112.054,344.781,110.33z"/>
<g>
	<rect x="249.104" style="fill:#FFEDB5;" width="13.791" height="170.667"/>
	<rect x="249.104" style="fill:#FFEDB5;" width="6.322" height="170.667"/>
</g>
<rect x="255.431" style="fill:#FEE187;" width="7.47" height="170.667"/>
<path style="fill:#FFFFFF;" d="M337.886,13.379v105.57h13.791V18.496C347.141,16.667,342.547,14.951,337.886,13.379z"/>
<path style="fill:#FDE085;" d="M405.118,312.889H284.444l8.701-139.216c2.084-33.342,21.756-63.055,51.636-77.996l0,0l0,0
	c29.88,14.941,49.552,44.654,51.636,77.996L405.118,312.889z"/>
<path style="fill:#FFFFFF;" d="M160.323,18.496v100.454h13.791V13.379C169.453,14.951,164.859,16.667,160.323,18.496z"/>
<path style="fill:#FFEDB5;" d="M227.556,312.889H106.882l8.701-139.216c2.084-33.342,21.756-63.055,51.636-77.996l0,0l0,0
	c29.88,14.941,49.552,44.654,51.636,77.996L227.556,312.889z"/>
<path style="fill:#F9D56E;" d="M316.337,364.606H195.663l8.701-139.216c2.084-33.342,21.756-63.055,51.636-77.996l0,0l0,0
	c29.88,14.941,49.552,44.654,51.636,77.996L316.337,364.606z"/>
<path style="fill:#FFC61B;" d="M307.636,225.39c-2.084-33.342-21.756-63.055-51.636-77.996c-0.193,0.097-0.381,0.202-0.574,0.298
	v216.914h60.911L307.636,225.39z"/>
<path style="fill:#F9D56E;" d="M204.364,225.39l-8.701,139.216h59.763V147.692C225.87,162.726,206.434,192.264,204.364,225.39z"/>
<g>
</g>
<g>
</g>
<g>
</g>
<g>
</g>
<g>
</g>
<g>
</g>
<g>
</g>
<g>
</g>
<g>
</g>
<g>
</g>
<g>
</g>
<g>
</g>
<g>
</g>
<g>
</g>
<g>
</g>
</svg>
