<?xml version="1.0" encoding="iso-8859-1"?>
<!-- Generator: Adobe Illustrator 18.0.0, SVG Export Plug-In . SVG Version: 6.00 Build 0)  -->
<!DOCTYPE svg PUBLIC "-//W3C//DTD SVG 1.1//EN" "http://www.w3.org/Graphics/SVG/1.1/DTD/svg11.dtd">
<svg version="1.1" id="Capa_1" xmlns="http://www.w3.org/2000/svg" xmlns:xlink="http://www.w3.org/1999/xlink" x="0px" y="0px"
	 viewBox="0 0 58 58" style="enable-background:new 0 0 58 58;" xml:space="preserve">
<line style="fill:none;stroke:#556080;stroke-width:2;stroke-linecap:round;stroke-linejoin:round;stroke-miterlimit:10;" x1="29" y1="5" x2="29" y2="42"/>
<line style="fill:none;stroke:#556080;stroke-width:2;stroke-linecap:round;stroke-linejoin:round;stroke-miterlimit:10;" x1="39" y1="5" x2="39" y2="32"/>
<line style="fill:none;stroke:#556080;stroke-width:2;stroke-linecap:round;stroke-linejoin:round;stroke-miterlimit:10;" x1="19" y1="5" x2="19" y2="22"/>
<rect x="16" y="1" style="fill:#556080;" width="26" height="4"/>
<line style="fill:none;stroke:#38454F;stroke-width:2;stroke-linecap:round;stroke-linejoin:round;stroke-miterlimit:10;" x1="12" y1="1" x2="46" y2="1"/>
<rect x="17" y="22" style="fill:#7383BF;" width="4" height="4"/>
<rect x="27" y="42" style="fill:#7383BF;" width="4" height="4"/>
<rect x="37" y="32" style="fill:#7383BF;" width="4" height="4"/>
<path style="fill:#ED8A19;" d="M21,28.422V26h-4v2.422c-1.764,0.772-3,2.529-3,4.578c0,2.761,2.239,5,5,5s5-2.239,5-5
	C24,30.951,22.764,29.194,21,28.422z"/>
<path style="fill:#ED8A19;" d="M31,48.422V46h-4v2.422c-1.764,0.772-3,2.529-3,4.578c0,2.761,2.239,5,5,5s5-2.239,5-5
	C34,50.951,32.764,49.194,31,48.422z"/>
<path style="fill:#ED8A19;" d="M41,38.422V36h-4v2.422c-1.764,0.772-3,2.529-3,4.578c0,2.761,2.239,5,5,5s5-2.239,5-5
	C44,40.951,42.764,39.194,41,38.422z"/>
<g>
	<path style="fill:#EFCE4A;" d="M20,32v-2c0-0.553-0.447-1-1-1s-1,0.447-1,1v2c-0.553,0-1,0.447-1,1s0.447,1,1,1h2
		c0.553,0,1-0.447,1-1S20.553,32,20,32z"/>
	<path style="fill:#EFCE4A;" d="M40,42v-2c0-0.553-0.447-1-1-1s-1,0.447-1,1v2c-0.553,0-1,0.447-1,1s0.447,1,1,1h2
		c0.553,0,1-0.447,1-1S40.553,42,40,42z"/>
	<path style="fill:#EFCE4A;" d="M30,52v-2c0-0.553-0.447-1-1-1s-1,0.447-1,1v2c-0.553,0-1,0.447-1,1s0.447,1,1,1h2
		c0.553,0,1-0.447,1-1S30.553,52,30,52z"/>
</g>
<g>
</g>
<g>
</g>
<g>
</g>
<g>
</g>
<g>
</g>
<g>
</g>
<g>
</g>
<g>
</g>
<g>
</g>
<g>
</g>
<g>
</g>
<g>
</g>
<g>
</g>
<g>
</g>
<g>
</g>
</svg>
