<?xml version="1.0" encoding="iso-8859-1"?>
<!-- Generator: Adobe Illustrator 18.0.0, SVG Export Plug-In . SVG Version: 6.00 Build 0)  -->
<!DOCTYPE svg PUBLIC "-//W3C//DTD SVG 1.1//EN" "http://www.w3.org/Graphics/SVG/1.1/DTD/svg11.dtd">
<svg version="1.1" id="Capa_1" xmlns="http://www.w3.org/2000/svg" xmlns:xlink="http://www.w3.org/1999/xlink" x="0px" y="0px"
	 viewBox="0 0 58 58" style="enable-background:new 0 0 58 58;" xml:space="preserve">
<line style="fill:none;stroke:#C7CAC7;stroke-width:2;stroke-linecap:round;stroke-miterlimit:10;" x1="4" y1="44.5" x2="4" y2="47.5"/>
<line style="fill:none;stroke:#C7CAC7;stroke-width:2;stroke-linecap:round;stroke-miterlimit:10;" x1="3" y1="47.5" x2="5" y2="47.5"/>
<line style="fill:none;stroke:#C7CAC7;stroke-width:2;stroke-linecap:round;stroke-miterlimit:10;" x1="54" y1="44.5" x2="54" y2="47.5"/>
<line style="fill:none;stroke:#C7CAC7;stroke-width:2;stroke-linecap:round;stroke-miterlimit:10;" x1="53" y1="47.5" x2="55" y2="47.5"/>
<polygon style="fill:#3D6F44;" points="52,20.5 52,35.5 6,35.5 6,20.5 0,20.5 0,35.5 0,41.5 58,41.5 58,35.5 58,20.5 "/>
<polygon style="fill:#43894D;" points="29,27.5 6,27.5 6,35.5 29,35.5 52,35.5 52,27.5 "/>
<polygon style="fill:#52A05F;" points="52,20.5 56,20.5 56,9.5 29,9.5 29,27.5 52,27.5 "/>
<polygon style="fill:#61B872;" points="6,20.5 6,27.5 29,27.5 29,9.5 2,9.5 2,20.5 "/>
<rect x="2" y="41.5" style="fill:#AFB6BB;" width="4" height="3"/>
<rect x="52" y="41.5" style="fill:#AFB6BB;" width="4" height="3"/>
<g>
</g>
<g>
</g>
<g>
</g>
<g>
</g>
<g>
</g>
<g>
</g>
<g>
</g>
<g>
</g>
<g>
</g>
<g>
</g>
<g>
</g>
<g>
</g>
<g>
</g>
<g>
</g>
<g>
</g>
</svg>
