<?xml version="1.0" encoding="iso-8859-1"?>
<!-- Generator: Adobe Illustrator 19.0.0, SVG Export Plug-In . SVG Version: 6.00 Build 0)  -->
<svg version="1.1" id="Layer_1" xmlns="http://www.w3.org/2000/svg" xmlns:xlink="http://www.w3.org/1999/xlink" x="0px" y="0px"
	 viewBox="0 0 512 512" style="enable-background:new 0 0 512 512;" xml:space="preserve">
<rect x="5.083" y="23.451" style="fill:#C89173;" width="506.917" height="51.119"/>
<path style="fill:#363640;" d="M245.283,74.568v149.451c0,15.802,12.81,28.612,28.612,28.612l0,0
	c15.802,0,28.612-12.81,28.612-28.612V74.568H245.283z"/>
<path style="fill:#464754;" d="M263.401,379.238l148.518-47.368c46.142-14.716,71.617-64.051,56.9-110.193l0,0
	c-14.716-46.142-64.051-71.617-110.193-56.9l-148.518,47.368L263.401,379.238z"/>
<path style="opacity:0.1;enable-background:new    ;" d="M468.819,221.679L468.819,221.679
	c-13.764-43.159-57.815-68.23-101.213-59.25c28.761,10.876,52.459,34.307,62.528,65.877l0,0
	c12.368,38.779,0.858,79.453-26.324,106.151l8.107-2.586C458.059,317.154,483.535,267.819,468.819,221.679z"/>
<path style="fill:#363640;" d="M369.89,74.568v149.451c0,15.802,12.81,28.612,28.612,28.612l0,0
	c15.802,0,28.612-12.81,28.612-28.612V74.568H369.89z"/>
<rect x="245.283" y="74.568" style="opacity:0.1;enable-background:new    ;" width="57.219" height="28.037"/>
<rect x="369.893" y="74.568" style="opacity:0.1;enable-background:new    ;" width="57.219" height="28.037"/>
<g>
	<circle style="fill:#A9ACCC;" cx="398.502" cy="221.844" r="9.996"/>
	<circle style="fill:#A9ACCC;" cx="236.748" cy="295.694" r="87.69"/>
</g>
<g>
	<path style="fill:#FFD782;" d="M288.248,279.269c9.056,28.393-6.676,58.86-35.07,67.916c-28.394,9.056-58.86-6.676-67.916-35.07
		c-9.056-28.394,6.676-58.86,35.07-67.916C248.726,235.142,279.191,250.876,288.248,279.269z"/>
	<path style="fill:#FFD782;" d="M29.14,387.652c-3.342,0-6.502-2.005-7.816-5.299c-1.72-4.316,0.384-9.207,4.698-10.928
		l87.219-34.77c4.316-1.72,9.208,0.384,10.928,4.698c1.72,4.316-0.384,9.207-4.698,10.928l-87.219,34.77
		C31.23,387.459,30.176,387.652,29.14,387.652z"/>
	<path style="fill:#FFD782;" d="M99.948,269.115H8.411c-4.645,0-8.411-3.766-8.411-8.411c0-4.645,3.766-8.411,8.411-8.411h91.537
		c4.645,0,8.411,3.766,8.411,8.411C108.359,265.349,104.593,269.115,99.948,269.115z"/>
	<path style="fill:#FFD782;" d="M100.163,488.549c-2.134,0-4.268-0.806-5.907-2.424c-3.307-3.262-3.342-8.588-0.08-11.895
		l64.293-65.157c3.262-3.307,8.587-3.342,11.895-0.08c3.307,3.262,3.342,8.588,0.08,11.895l-64.294,65.157
		C104.505,487.714,102.335,488.549,100.163,488.549z"/>
</g>
<g>
</g>
<g>
</g>
<g>
</g>
<g>
</g>
<g>
</g>
<g>
</g>
<g>
</g>
<g>
</g>
<g>
</g>
<g>
</g>
<g>
</g>
<g>
</g>
<g>
</g>
<g>
</g>
<g>
</g>
</svg>
