<?xml version="1.0" encoding="iso-8859-1"?>
<!-- Generator: Adobe Illustrator 19.0.0, SVG Export Plug-In . SVG Version: 6.00 Build 0)  -->
<svg version="1.1" id="Layer_1" xmlns="http://www.w3.org/2000/svg" xmlns:xlink="http://www.w3.org/1999/xlink" x="0px" y="0px"
	 viewBox="0 0 512 512" style="enable-background:new 0 0 512 512;" xml:space="preserve">
<path style="fill:#3E3B43;" d="M331.19,0h148.327v36.3c0,14.208-11.518,25.727-25.727,25.727h-96.872
	c-14.208,0-25.727-11.518-25.727-25.727V0H331.19z"/>
<path style="fill:#D7D5D9;" d="M456.77,265.893c-7.403-19.117-19.243-35.204-33.886-47.546V62.028H387.82v135.883
	c-26.073-9.689-55.653-10.255-83.633,0.577l-22.187,8.59l85.176,219.986l22.187-8.59
	C450.112,394.954,480.291,326.642,456.77,265.893z"/>
<g>
	<polygon style="fill:#3E3B43;" points="240.274,261.396 320.403,468.348 374.98,447.216 273.224,184.409 218.647,205.54 	"/>
	<polygon style="opacity:0.24;fill:#3E3B43;enable-background:new    ;" points="274.903,263.445 341.721,436.018 383.15,419.977 
		298.298,200.827 256.869,216.868 	"/>
</g>
<g>
	<path style="fill:#FFDA44;" d="M169.558,382.68c-3.101,0-6.025-1.88-7.205-4.947c-1.531-3.978,0.451-8.445,4.429-9.977
		l29.822-11.484c3.98-1.53,8.445,0.451,9.977,4.429c1.531,3.979-0.451,8.445-4.429,9.977l-29.822,11.484
		C171.419,382.513,170.48,382.68,169.558,382.68z"/>
	<path style="fill:#FFDA44;" d="M100.29,409.354c-3.101,0-6.025-1.88-7.205-4.947c-1.531-3.978,0.451-8.445,4.429-9.977
		l33.734-12.991c3.979-1.53,8.445,0.451,9.977,4.429s-0.451,8.445-4.429,9.977l-33.734,12.991
		C102.15,409.187,101.212,409.354,100.29,409.354z"/>
	<path style="fill:#FFDA44;" d="M125.352,318.671c-3.92,0-7.276-2.974-7.671-6.956c-0.422-4.242,2.676-8.023,6.917-8.444
		l27.415-2.724c4.254-0.418,8.023,2.676,8.444,6.917c0.422,4.242-2.676,8.023-6.917,8.444l-27.415,2.724
		C125.865,318.657,125.607,318.671,125.352,318.671z"/>
	<path style="fill:#FFDA44;" d="M40.193,327.137c-3.92,0-7.275-2.974-7.671-6.956c-0.422-4.242,2.676-8.023,6.917-8.444l39.834-3.96
		c4.246-0.416,8.023,2.676,8.444,6.917c0.422,4.242-2.676,8.023-6.917,8.444l-39.834,3.96
		C40.707,327.123,40.449,327.137,40.193,327.137z"/>
	<path style="fill:#FFDA44;" d="M169.562,467.751c-2.329,0-4.63-1.05-6.149-3.045c-2.581-3.392-1.923-8.235,1.47-10.816
		l27.441-20.877c3.391-2.581,8.235-1.922,10.816,1.47c2.581,3.392,1.923,8.235-1.47,10.816l-27.441,20.877
		C172.834,467.236,171.191,467.751,169.562,467.751z"/>
	<path style="fill:#FFDA44;" d="M111.399,512c-2.329,0-4.63-1.05-6.149-3.045c-2.581-3.393-1.923-8.235,1.47-10.816l32.762-24.925
		c3.392-2.58,8.235-1.922,10.816,1.47c2.581,3.393,1.923,8.235-1.47,10.816l-32.762,24.925C114.67,511.486,113.028,512,111.399,512z
		"/>
</g>
<rect x="387.823" y="51.457" style="opacity:0.29;fill:#3E3B43;enable-background:new    ;" width="35.063" height="48.027"/>
<g>
</g>
<g>
</g>
<g>
</g>
<g>
</g>
<g>
</g>
<g>
</g>
<g>
</g>
<g>
</g>
<g>
</g>
<g>
</g>
<g>
</g>
<g>
</g>
<g>
</g>
<g>
</g>
<g>
</g>
</svg>
