<?xml version="1.0" encoding="iso-8859-1"?>
<!-- Generator: Adobe Illustrator 19.0.0, SVG Export Plug-In . SVG Version: 6.00 Build 0)  -->
<svg version="1.1" id="Layer_1" xmlns="http://www.w3.org/2000/svg" xmlns:xlink="http://www.w3.org/1999/xlink" x="0px" y="0px"
	 viewBox="0 0 512 512" style="enable-background:new 0 0 512 512;" xml:space="preserve">
<circle style="fill:#008CC3;" cx="256" cy="256" r="256"/>
<path style="fill:#0074A3;" d="M253.414,294.214l162.049,162.049C474.291,409.357,512,337.087,512,256
	c0-2.401-0.04-4.792-0.105-7.178L349.231,86.159L253.414,294.214z"/>
<path style="fill:#175D76;" d="M160.854,92.517c0-17.517,42.598-31.715,95.146-31.715s95.146,14.2,95.146,31.715v95.146H160.854
	V92.517z"/>
<path style="fill:#00263F;" d="M351.146,92.519c0-17.517-42.598-31.715-95.146-31.715v126.86h95.146V92.519z"/>
<path style="fill:#FFB344;" d="M77.059,439.049C123.214,484.174,186.352,512,256,512s132.787-27.826,178.941-72.951l-83.796-251.385
	H160.854L77.059,439.049z"/>
<path style="fill:#FF9451;" d="M351.146,187.663H256V512c69.648,0,132.786-27.826,178.94-72.951L351.146,187.663z"/>
<ellipse style="fill:#FFCF35;" cx="256" cy="187.664" rx="95.142" ry="31.715"/>
<path style="fill:#FFB344;" d="M351.146,187.663c0-17.517-42.598-31.715-95.146-31.715v63.431
	C308.548,219.379,351.146,205.179,351.146,187.663z"/>
<g>
</g>
<g>
</g>
<g>
</g>
<g>
</g>
<g>
</g>
<g>
</g>
<g>
</g>
<g>
</g>
<g>
</g>
<g>
</g>
<g>
</g>
<g>
</g>
<g>
</g>
<g>
</g>
<g>
</g>
</svg>
